<svg width="69" height="50" viewBox="0 0 69 50" fill="none" xmlns="http://www.w3.org/2000/svg">
<path d="M40.4316 32.9317C40.4316 24.0964 42.8526 16.8675 47.6947 11.245C51.6733 6.51522 57.1774 3.14114 64.207 1.12271C66.6675 0.416207 69 2.3636 69 4.92358C69 6.85378 67.6371 8.48517 65.8104 9.10876C62.2857 10.312 59.3945 12.162 57.1368 14.6586C55.6425 16.2423 54.4898 18.0031 53.6787 19.9409C52.3966 23.0039 55.1223 25.9036 58.4427 25.9036C61.5991 25.9036 64.1579 28.4624 64.1579 31.6188V44C64.1579 47.3137 61.4716 50 58.1579 50H46.4316C43.1179 50 40.4316 47.3137 40.4316 44V32.9317ZM0 32.9317C0 24.0964 2.42105 16.8675 7.26316 11.245C11.2265 6.5333 16.6497 3.16694 23.5327 1.14591C25.9893 0.424585 28.3263 2.36961 28.3263 4.92993C28.3263 6.85642 26.967 8.48629 25.14 9.09766C21.6138 10.2777 18.7215 12.0644 16.4632 14.4578C15.0369 16.0583 13.9159 17.8577 13.1001 19.8561C11.8389 22.9459 14.53 25.9036 17.8673 25.9036C20.9694 25.9036 23.4842 28.4184 23.4842 31.5206V44C23.4842 47.3137 20.7979 50 17.4842 50H6C2.6863 50 0 47.3137 0 44V32.9317Z" fill="white" fill-opacity="0.6"/>
</svg>
