<svg width="303" height="63" viewBox="0 0 303 63" fill="none" xmlns="http://www.w3.org/2000/svg">
<path d="M2 0.5C1.17157 0.5 0.5 1.17157 0.5 2C0.5 2.82843 1.17157 3.5 2 3.5V0.5ZM301 3.5C301.828 3.5 302.5 2.82843 302.5 2C302.5 1.17157 301.828 0.5 301 0.5V3.5ZM4.87875 3.57318L6.3768 3.64963L6.52971 0.653533L5.03166 0.577079L4.87875 3.57318ZM14.9754 1.94014L13.5118 1.61204L12.8556 4.5394L14.3192 4.86749L14.9754 1.94014ZM19.8526 6.3906L21.2787 6.85556L22.2086 4.00333L20.7825 3.53836L19.8526 6.3906ZM30.047 7.28497L28.6947 6.63587L27.3965 9.34043L28.7488 9.98953L30.047 7.28497ZM33.8887 12.6611L35.1988 13.3918L36.6601 10.7718L35.3501 10.0411L33.8887 12.6611ZM43.8072 15.1992L42.553 14.3764L40.9074 16.8848L42.1616 17.7076L43.8072 15.1992ZM47.0004 20.9819L48.2323 21.8378L49.9441 19.3741L48.7123 18.5182L47.0004 20.9819ZM56.7199 24.2336L55.5061 23.3524L53.7437 25.7802L54.9576 26.6614L56.7199 24.2336ZM59.7189 30.1226L60.9329 31.0036L62.6949 28.5756L61.4809 27.6946L59.7189 30.1226ZM69.4353 33.3775L68.2053 32.519L66.4883 34.9791L67.7184 35.8376L69.4353 33.3775ZM72.5987 39.1726L73.8464 40.0053L75.5117 37.5099L74.264 36.6773L72.5987 39.1726ZM82.4803 41.8891L81.1931 41.1189L79.6526 43.6932L80.9398 44.4634L82.4803 41.8891ZM86.0887 47.419L87.4036 48.1409L88.8473 45.5112L87.5325 44.7893L86.0887 47.419ZM96.188 49.1521L94.8243 48.5272L93.5746 51.2545L94.9382 51.8794L96.188 49.1521ZM100.408 54.2293L101.8 54.7875L102.917 52.003L101.525 51.4448L100.408 54.2293ZM110.647 54.6599L109.212 54.223L108.338 57.0929L109.773 57.5298L110.647 54.6599ZM115.517 59.1143L116.973 59.4747L117.694 56.5626L116.238 56.2022L115.517 59.1143ZM125.732 58.1121L124.25 57.8809L123.788 60.8451L125.27 61.0763L125.732 58.1121ZM131.183 61.8436L132.675 61.9988L132.985 59.0149L131.493 58.8597L131.183 61.8436ZM141.126 59.4661L139.626 59.4313L139.557 62.4305L141.056 62.4653L141.126 59.4661ZM147.046 62.4697L148.546 62.4391L148.485 59.4397L146.985 59.4704L147.046 62.4697ZM156.54 58.9381L155.047 59.0759L155.322 62.0632L156.816 61.9254L156.54 58.9381ZM162.671 61.2495L164.157 61.0429L163.744 58.0715L162.258 58.2781L162.671 61.2495ZM171.682 56.5812L170.218 56.9068L170.869 59.8353L172.333 59.5097L171.682 56.5812ZM178.05 58.0893L179.496 57.6917L178.701 54.799L177.255 55.1967L178.05 58.0893ZM186.36 52.2859L184.951 52.8003L185.98 55.6184L187.389 55.1039L186.36 52.2859ZM192.875 52.9524L194.258 52.3723L193.098 49.6057L191.715 50.1858L192.875 52.9524ZM200.417 46.1568L199.078 46.834L200.432 49.5109L201.771 48.8338L200.417 46.1568ZM206.961 46.0838L208.273 45.3577L206.821 42.7326L205.509 43.4587L206.961 46.0838ZM213.807 38.5822L212.532 39.3718L214.111 41.9225L215.387 41.1329L213.807 38.5822ZM220.327 37.9982L221.586 37.1822L219.954 34.6649L218.695 35.4809L220.327 37.9982ZM226.751 30.1308L225.508 30.9701L227.187 33.4566L228.43 32.6173L226.751 30.1308ZM233.252 29.3546L234.495 28.5144L232.815 26.0291L231.572 26.8693L233.252 29.3546ZM239.664 21.4758L238.407 22.2946L240.044 24.8082L241.301 23.9895L239.664 21.4758ZM246.182 20.8797L247.456 20.0883L245.873 17.5398L244.599 18.3312L246.182 20.8797ZM253.037 13.3869L251.72 14.1066L253.16 16.7387L254.476 16.019L253.037 13.3869ZM259.58 13.3678L260.927 12.7069L259.605 10.0138L258.258 10.6747L259.58 13.3678ZM267.259 6.73004L265.859 7.26815L266.935 10.0685L268.335 9.53036L267.259 6.73004ZM273.741 7.63733L275.171 7.18542L274.268 4.3248L272.837 4.77671L273.741 7.63733ZM282.374 2.31521L280.903 2.61094L281.495 5.55206L282.965 5.25633L282.374 2.31521ZM288.609 4.31186L290.095 4.1124L289.696 1.13904L288.21 1.3385L288.609 4.31186ZM298.015 0.544011L296.516 0.588481L296.605 3.58716L298.104 3.54269L298.015 0.544011ZM2 3.5C2.97031 3.5 3.92966 3.52474 4.87875 3.57318L5.03166 0.577079C4.03169 0.526046 3.02135 0.5 2 0.5V3.5ZM14.3192 4.86749C16.1944 5.28783 18.0367 5.79858 19.8526 6.3906L20.7825 3.53836C18.8814 2.91854 16.9477 2.38224 14.9754 1.94014L14.3192 4.86749ZM28.7488 9.98953C30.4754 10.8183 32.1866 11.7118 33.8887 12.6611L35.3501 10.0411C33.6004 9.0652 31.8346 8.14303 30.047 7.28497L28.7488 9.98953ZM42.1616 17.7076C43.773 18.7647 45.384 19.8587 47.0004 20.9819L48.7123 18.5182C47.0787 17.3832 45.4452 16.2738 43.8072 15.1992L42.1616 17.7076ZM54.9576 26.6614C56.5174 27.7937 58.1301 28.9696 59.7189 30.1226L61.4809 27.6946C59.8687 26.5245 58.3103 25.3882 56.7199 24.2336L54.9576 26.6614ZM67.7184 35.8376C69.3214 36.9564 70.947 38.0704 72.5987 39.1726L74.264 36.6773C72.6324 35.5885 71.0244 34.4865 69.4353 33.3775L67.7184 35.8376ZM80.9398 44.4634C82.6242 45.4714 84.3393 46.4586 86.0887 47.419L87.5325 44.7893C85.8182 43.8481 84.1353 42.8796 82.4803 41.8891L80.9398 44.4634ZM94.9382 51.8794C96.7239 52.6977 98.5462 53.4827 100.408 54.2293L101.525 51.4448C99.7094 50.7169 97.9316 49.9511 96.188 49.1521L94.9382 51.8794ZM109.773 57.5298C111.647 58.1007 113.561 58.6303 115.517 59.1143L116.238 56.2022C114.334 55.7311 112.472 55.2156 110.647 54.6599L109.773 57.5298ZM125.27 61.0763C127.201 61.3776 129.172 61.6345 131.183 61.8436L131.493 58.8597C129.533 58.6559 127.613 58.4056 125.732 58.1121L125.27 61.0763ZM141.056 62.4653C142.05 62.4883 143.053 62.5 144.066 62.5V59.5C143.077 59.5 142.096 59.4886 141.126 59.4661L141.056 62.4653ZM144.066 62.5C145.069 62.5 146.063 62.4898 147.046 62.4697L146.985 59.4704C146.022 59.49 145.049 59.5 144.066 59.5V62.5ZM156.816 61.9254C158.809 61.7415 160.76 61.5153 162.671 61.2495L162.258 58.2781C160.392 58.5375 158.487 58.7584 156.54 58.9381L156.816 61.9254ZM172.333 59.5097C174.28 59.0768 176.185 58.6022 178.05 58.0893L177.255 55.1967C175.437 55.6965 173.58 56.1592 171.682 56.5812L172.333 59.5097ZM187.389 55.1039C189.256 54.4221 191.084 53.7034 192.875 52.9524L191.715 50.1858C189.965 50.9193 188.182 51.6208 186.36 52.2859L187.389 55.1039ZM201.771 48.8338C203.533 47.9425 205.261 47.0241 206.961 46.0838L205.509 43.4587C203.839 44.3825 202.143 45.2835 200.417 46.1568L201.771 48.8338ZM215.387 41.1329C217.055 40.1 218.7 39.0532 220.327 37.9982L218.695 35.4809C217.083 36.5266 215.455 37.5621 213.807 38.5822L215.387 41.1329ZM228.43 32.6173C230.044 31.5279 231.654 30.4353 233.252 29.3546L231.572 26.8693C229.966 27.9549 228.366 29.0411 226.751 30.1308L228.43 32.6173ZM241.301 23.9895C242.923 22.933 244.548 21.8945 246.182 20.8797L244.599 18.3312C242.943 19.3596 241.3 20.41 239.664 21.4758L241.301 23.9895ZM254.476 16.019C256.158 15.0993 257.857 14.2136 259.58 13.3678L258.258 10.6747C256.492 11.5417 254.753 12.448 253.037 13.3869L254.476 16.019ZM268.335 9.53036C270.104 8.85043 271.905 8.21759 273.741 7.63733L272.837 4.77671C270.94 5.3761 269.082 6.02923 267.259 6.73004L268.335 9.53036ZM282.965 5.25633C284.806 4.88629 286.685 4.56992 288.609 4.31186L288.21 1.3385C286.221 1.6053 284.277 1.93246 282.374 2.31521L282.965 5.25633ZM298.104 3.54269C299.058 3.51439 300.024 3.5 301 3.5V0.5C299.994 0.5 298.999 0.514821 298.015 0.544011L298.104 3.54269Z" fill="url(#paint0_linear)"/>
<defs>
<linearGradient id="paint0_linear" x1="13" y1="2" x2="301" y2="1.99999" gradientUnits="userSpaceOnUse">
<stop stop-color="#D3D3D3" stop-opacity="0.1"/>
<stop offset="0.46875" stop-color="#D3D3D3"/>
<stop offset="1" stop-color="#D3D3D3" stop-opacity="0.1"/>
</linearGradient>
</defs>
</svg>
