<svg width="21" height="22" viewBox="0 0 21 22" fill="none" xmlns="http://www.w3.org/2000/svg">
<path fill-rule="evenodd" clip-rule="evenodd" d="M14.5134 20.5H6.16555C3.09919 20.5 0.746786 19.3924 1.41498 14.9348L2.19301 8.89357C2.60491 6.66931 4.02367 5.81805 5.26852 5.81805H15.447C16.7102 5.81805 18.0466 6.73339 18.5225 8.89357L19.3006 14.9348C19.8681 18.889 17.5797 20.5 14.5134 20.5Z" stroke="white" stroke-width="1.5" stroke-linecap="round" stroke-linejoin="round"/>
<path d="M14.6512 5.59839C14.6512 3.21232 12.7169 1.27802 10.3309 1.27802V1.27802C9.18186 1.27315 8.07825 1.72618 7.26406 2.53694C6.44987 3.34769 5.99218 4.44938 5.99219 5.59839H5.99219" stroke="white" stroke-width="1.5" stroke-linecap="round" stroke-linejoin="round"/>
<path d="M13.297 10.1018H13.2512" stroke="white" stroke-width="1.5" stroke-linecap="round" stroke-linejoin="round"/>
<path d="M7.46492 10.1018H7.41916" stroke="white" stroke-width="1.5" stroke-linecap="round" stroke-linejoin="round"/>
</svg>
