<?xml version="1.0" encoding="utf-8"?>
<!-- Generator: Adobe Illustrator 25.0.1, SVG Export Plug-In . SVG Version: 6.00 Build 0)  -->
<svg version="1.1" id="Layer_1" xmlns="http://www.w3.org/2000/svg" xmlns:xlink="http://www.w3.org/1999/xlink" x="0px" y="0px"
	 viewBox="0 0 24 24" style="enable-background:new 0 0 24 24;" xml:space="preserve">
<style type="text/css">
	.st0{fill-rule:evenodd;clip-rule:evenodd;fill:#88849C;}
</style>
<desc>Created with Sketch.</desc>
<g id="Page-1">
	<g id="ic-settings">
		<path id="Combined-Shape" class="st0" d="M1,5c0-0.6,0.4-1,1-1h1c0.6,0,1,0.4,1,1S3.6,6,3,6H2C1.4,6,1,5.6,1,5z M12,5
			c0-0.6,0.4-1,1-1h9c0.5,0,1,0.4,1,1s-0.4,1-1,1h-9C12.4,6,12,5.6,12,5z M8,6C7.4,6,7,5.6,7,5s0.4-1,1-1s1,0.4,1,1S8.6,6,8,6z M8,8
			C6.3,8,5,6.7,5,5s1.3-3,3-3s3,1.3,3,3S9.7,8,8,8z M1,19c0-0.6,0.4-1,1-1h1c0.6,0,1,0.4,1,1s-0.4,1-1,1H2C1.4,20,1,19.6,1,19z
			 M12,19c0-0.6,0.4-1,1-1h9c0.5,0,1,0.4,1,1s-0.4,1-1,1h-9C12.4,20,12,19.6,12,19z M8,20c-0.6,0-1-0.4-1-1s0.4-1,1-1s1,0.4,1,1
			S8.6,20,8,20z M8,22c-1.7,0-3-1.3-3-3s1.3-3,3-3s3,1.3,3,3S9.7,22,8,22z M1,12c0-0.6,0.5-1,1-1h8c0.5,0,1,0.4,1,1s-0.5,1-1,1H2
			C1.4,13,1,12.6,1,12z M19,12c0-0.6,0.4-1,1-1h2c0.6,0,1,0.4,1,1s-0.4,1-1,1h-2C19.5,13,19,12.6,19,12z M15,13c-0.6,0-1-0.4-1-1
			s0.4-1,1-1s1,0.4,1,1S15.6,13,15,13z M15,15c-1.7,0-3-1.3-3-3s1.3-3,3-3s3,1.3,3,3S16.7,15,15,15z"/>
	</g>
</g>
</svg>
