<?xml version="1.0" encoding="utf-8"?>
<!-- Generator: Adobe Illustrator 25.0.1, SVG Export Plug-In . SVG Version: 6.00 Build 0)  -->
<svg version="1.1" id="Layer_1" xmlns="http://www.w3.org/2000/svg" xmlns:xlink="http://www.w3.org/1999/xlink" x="0px" y="0px"
	 viewBox="0 0 24 24" style="enable-background:new 0 0 24 24;" xml:space="preserve">
<style type="text/css">
	.st0{fill:#88849C;}
</style>
<desc>Created with Sketch.</desc>
<g id="Page-1">
	<g id="ic-map">
		<path id="Rectangle-165" class="st0" d="M3,7.7L3,7.7v12c0,0.6,0.4,0.8,0.8,0.5l4.3-2.9c0.5-0.3,1.2-0.3,1.7,0l4.3,2.9
			c0.5,0.3,1.2,0.3,1.7,0l4.3-2.9c0.5-0.3,0.8-1,0.8-1.6v-12c0-0.6-0.4-0.8-0.8-0.5l-4.3,2.9c-0.5,0.3-1.2,0.3-1.7,0L9.8,3.2
			c-0.5-0.3-1.2-0.3-1.7,0L3.8,6.1C3.4,6.4,3,7.1,3,7.7L3,7.7z M1,7.7L1,7.7c0-1.2,0.7-2.5,1.7-3.2L7,1.6c1.1-0.8,2.8-0.8,3.9,0
			l4.3,2.9c-0.2-0.1-0.3-0.1-0.6,0l4.3-2.9c1.8-1.2,3.9,0,3.9,2.1v12c0,1.2-0.7,2.5-1.7,3.2l-4.3,2.9c-1.1,0.8-2.8,0.8-3.9,0
			l-4.3-2.9c0.2,0.1,0.3,0.1,0.6,0l-4.3,2.9C3.2,23,1,21.8,1,19.7V7.7z M8,2.7h2v15H8V2.7z M14,5.7h2v15h-2V5.7z"/>
	</g>
</g>
</svg>
