<?xml version="1.0" encoding="utf-8"?>
<!-- Generator: Adobe Illustrator 25.0.1, SVG Export Plug-In . SVG Version: 6.00 Build 0)  -->
<svg version="1.1" id="Layer_1" xmlns="http://www.w3.org/2000/svg" xmlns:xlink="http://www.w3.org/1999/xlink" x="0px" y="0px"
	 viewBox="0 0 24 24" style="enable-background:new 0 0 24 24;" xml:space="preserve">
<style type="text/css">
	.st0{fill:#88849C;}
</style>
<desc>Created with Sketch.</desc>
<g id="Page-1">
	<g id="ic-grid">
		<g id="Group" transform="translate(3.000000, 3.000000)">
			<path id="Combined-Shape" class="st0" d="M2,3v2c0,0.5,0.4,1,1,1h2c0.5,0,1-0.4,1-1V3c0-0.5-0.4-1-1-1H3C2.4,2,2,2.4,2,3z M0,3
				c0-1.7,1.3-3,3-3h2c1.7,0,3,1.3,3,3v2c0,1.7-1.3,3-3,3H3C1.3,8,0,6.7,0,5V3z M10,3c0-1.7,1.3-3,3-3h2c1.7,0,3,1.3,3,3v2
				c0,1.7-1.3,3-3,3h-2c-1.7,0-3-1.3-3-3V3z M12,3v2c0,0.5,0.4,1,1,1h2c0.5,0,1-0.4,1-1V3c0-0.5-0.4-1-1-1h-2C12.4,2,12,2.4,12,3z
				 M0,13c0-1.7,1.3-3,3-3h2c1.7,0,3,1.3,3,3v2c0,1.7-1.3,3-3,3H3c-1.7,0-3-1.3-3-3V13z M2,13v2c0,0.5,0.4,1,1,1h2c0.5,0,1-0.4,1-1
				v-2c0-0.5-0.4-1-1-1H3C2.4,12,2,12.4,2,13z M10,13c0-1.7,1.3-3,3-3h2c1.7,0,3,1.3,3,3v2c0,1.7-1.3,3-3,3h-2c-1.7,0-3-1.3-3-3V13z
				 M12,13v2c0,0.5,0.4,1,1,1h2c0.5,0,1-0.4,1-1v-2c0-0.5-0.4-1-1-1h-2C12.4,12,12,12.4,12,13z"/>
		</g>
	</g>
</g>
</svg>
