<?xml version="1.0" encoding="utf-8"?>
<!-- Generator: Adobe Illustrator 25.0.1, SVG Export Plug-In . SVG Version: 6.00 Build 0)  -->
<svg version="1.1" id="Layer_1" xmlns="http://www.w3.org/2000/svg" xmlns:xlink="http://www.w3.org/1999/xlink" x="0px" y="0px"
	 viewBox="0 0 24 24" style="enable-background:new 0 0 24 24;" xml:space="preserve">
<style type="text/css">
	.st0{fill:#88849C;}
</style>
<desc>Created with Sketch.</desc>
<g id="Page-1">
	<g id="ic-credit-card">
		<path id="Rectangle-23" class="st0" d="M3,7L3,7v10c0,0.5,0.4,1,1,1h16c0.5,0,1-0.4,1-1V7c0-0.5-0.4-1-1-1H4C3.4,6,3,6.4,3,7L3,7z
			 M1,7L1,7c0-1.7,1.3-3,3-3h16c1.7,0,3,1.4,3,3v10c0,1.7-1.3,3-3,3H4c-1.7,0-3-1.4-3-3V7z M3,8h18v3H3V8z"/>
	</g>
</g>
</svg>
