<?xml version="1.0" encoding="utf-8"?>
<!-- Generator: Adobe Illustrator 25.0.1, SVG Export Plug-In . SVG Version: 6.00 Build 0)  -->
<svg version="1.1" id="Layer_1" xmlns="http://www.w3.org/2000/svg" xmlns:xlink="http://www.w3.org/1999/xlink" x="0px" y="0px"
	 viewBox="0 0 24 24" style="enable-background:new 0 0 24 24;" xml:space="preserve">
<style type="text/css">
	.st0{fill:#88849C;}
</style>
<desc>Created with Sketch.</desc>
<g id="Page-1">
	<g id="ic-smile">
		<path id="Combined-Shape" class="st0" d="M12,21c5,0,9-4,9-9s-4-9-9-9s-9,4-9,9S7,21,12,21z M12,23C5.9,23,1,18.1,1,12S5.9,1,12,1
			s11,4.9,11,11S18.1,23,12,23z M8,12c1.1,0,2-0.9,2-2S9.1,8,8,8s-2,0.9-2,2S6.9,12,8,12z M16,12c-1.1,0-2-0.9-2-2s0.9-2,2-2
			s2,0.9,2,2S17.1,12,16,12z M8.3,16.7c-0.4-0.4-0.4-1,0-1.4c0.4-0.4,1-0.4,1.4,0c0,0,0,0,0.1,0.1s0.2,0.2,0.4,0.2
			c0.5,0.2,1.1,0.4,1.8,0.4s1.3-0.1,1.8-0.4c0.2-0.1,0.3-0.2,0.4-0.2c0.1,0,0.1-0.1,0.1-0.1c0.4-0.4,1-0.4,1.4,0
			c0.4,0.4,0.4,1,0,1.4c-0.2,0.2-0.5,0.4-1,0.7C13.9,17.8,13,18,12,18s-1.9-0.2-2.7-0.6C8.8,17.2,8.5,16.9,8.3,16.7z"/>
	</g>
</g>
</svg>
